HIERARCHY
ROOT root
{
	OFFSET	0	13.1	24.9
	CHANNELS 6  Xposition Yposition Zposition Xrotation Yrotation Zrotation
	JOINT spine_1
	{
		OFFSET	0	9.99999	0
		CHANNELS 3  Xrotation Yrotation Zrotation
		JOINT spine_2
		{
			OFFSET	0	112	-10
			CHANNELS 3  Xrotation Yrotation Zrotation
			JOINT spine_3
			{
				OFFSET	0	206.5	19.3
				CHANNELS 3  Xrotation Yrotation Zrotation
				JOINT spine_4
				{
					OFFSET	0	110.4	14.6
					CHANNELS 3  Xrotation Yrotation Zrotation
					JOINT neck_1
					{
						OFFSET	0	71.8	-50.3
						CHANNELS 3  Xrotation Yrotation Zrotation
						JOINT neck_2
						{
							OFFSET	0	86.2	-25.8
							CHANNELS 3  Xrotation Yrotation Zrotation
							JOINT head_ee
							{
								OFFSET	0	179.8	-8.7
								CHANNELS 3  Xrotation Yrotation Zrotation
								End Site
								{
									OFFSET	1	0	0
								}
							}
						}
					}
					JOINT left_clavicle
					{
						OFFSET	-43.2	22.4	-70.8
						CHANNELS 3  Xrotation Yrotation Zrotation
						JOINT left_shoulder
						{
							OFFSET	-93.9	-5.79999	48.7
							CHANNELS 3  Xrotation Yrotation Zrotation
							JOINT left_elbow
							{
								OFFSET	-291.4	-30.8	15.2
								CHANNELS 3  Xrotation Yrotation Zrotation
								JOINT left_lowarm_twist
								{
									OFFSET	-110.7	-3.89999	13.6
									CHANNELS 3  Xrotation Yrotation Zrotation
									JOINT left_hand
									{
										OFFSET	-110.7	-3.89999	13.6
										CHANNELS 3  Xrotation Yrotation Zrotation
										JOINT left_ee
										{
											OFFSET	-80.8	-5.10001	12.1
											CHANNELS 3  Xrotation Yrotation Zrotation
											End Site
											{
												OFFSET	1	0	0
											}
										}
									}
								}
							}
						}
					}
					JOINT right_clavicle
					{
						OFFSET	43.2	22.4	-70.8
						CHANNELS 3  Xrotation Yrotation Zrotation
						JOINT right_shoulder
						{
							OFFSET	93.9	-5.79999	48.7
							CHANNELS 3  Xrotation Yrotation Zrotation
							JOINT right_elbow
							{
								OFFSET	291.4	-30.8	15.2
								CHANNELS 3  Xrotation Yrotation Zrotation
								JOINT right_lowarm_twist
								{
									OFFSET	110.7	-3.89999	13.6
									CHANNELS 3  Xrotation Yrotation Zrotation
									JOINT right_hand
									{
										OFFSET	110.7	-3.89999	13.6
										CHANNELS 3  Xrotation Yrotation Zrotation
										JOINT right_ee
										{
											OFFSET	80.8	-5.10001	12.1
											CHANNELS 3  Xrotation Yrotation Zrotation
											End Site
											{
												OFFSET	1	0	0
											}
										}
									}
								}
							}
						}
					}
				}
			}
		}
	}
	JOINT left_hip
	{
		OFFSET	-82.8	-127.5	0.300001
		CHANNELS 3  Xrotation Yrotation Zrotation
		JOINT left_knee
		{
			OFFSET	-28.2	-396.7	2.2
			CHANNELS 3  Xrotation Yrotation Zrotation
			JOINT left_ankle
			{
				OFFSET	-11.7	-411.3	35.4
				CHANNELS 3  Xrotation Yrotation Zrotation
				JOINT left_toes
				{
					OFFSET	0	-60	-88.6
					CHANNELS 3  Xrotation Yrotation Zrotation
					JOINT left_foot_ee
					{
						OFFSET	-22.5	-16.5	-42.2
						CHANNELS 3  Xrotation Yrotation Zrotation
						End Site
						{
							OFFSET	1	0	0
						}
					}
				}
			}
		}
	}
	JOINT right_hip
	{
		OFFSET	82.8	-127.5	0.300001
		CHANNELS 3  Xrotation Yrotation Zrotation
		JOINT right_knee
		{
			OFFSET	28.2	-396.7	2.2
			CHANNELS 3  Xrotation Yrotation Zrotation
			JOINT right_ankle
			{
				OFFSET	11.7	-411.3	35.4
				CHANNELS 3  Xrotation Yrotation Zrotation
				JOINT right_toes
				{
					OFFSET	0	-60	-88.6
					CHANNELS 3  Xrotation Yrotation Zrotation
					JOINT right_foot_ee
					{
						OFFSET	22.5	-16.5	-42.2
						CHANNELS 3  Xrotation Yrotation Zrotation
						End Site
						{
							OFFSET	1	0	0
						}
					}
				}
			}
		}
	}
}
MOTION
Frames: 10
Frame Time: 0.02
2822.31892129 701.689 -1659.82399449 6.36693263651 55.3527233879 -5.70552032009 0.618187 0.35181 2.06545 0.620534 0.219696 2.08364 0.629402 -0.200283 2.08559 0.623356 0.131537 2.09105 -8.66164 11.5554 0.934394 -8.74183 21.0 3.59142 -0.0 0.0 -0.0 -0.764846 17.9614 0.937523 -3.98734 -31.3296 52.4053 1.10846 -28.7702 0.284305 -53.3941 -4.47452 4.84853 0.127034 -5.22479 -1.35781 -0.0 0.0 -0.0 9.40382 28.0193 -17.3099 -23.5551 39.7997 -65.3813 0.591085 16.3205 -0.0847587 -12.4956 0.603893 -1.47598 -0.304282 5.71371 4.47865 0.0 0.0 0.0 7.64983 -12.6705 3.35838 -30.1623 0.0378167 4.57556 28.0532 14.9867 -3.7184 -0.668974 0.0 0.0 -0.0 0.0 -0.0 7.26627 34.4394 -3.80733 -49.9361 1.21661 -7.32837 27.0909 -1.27529 3.58373 -18.3861 0.0 0.0 0.0 0.0 0.0 
2809.3246588 705.768 -1634.90632135 6.17200246109 59.3961376437 -5.53636200725 0.61174 0.213433 1.84678 0.613632 0.0955058 1.85661 0.617356 -0.27713 1.8383 0.61264 0.0166207 1.85899 -8.12299 11.2111 0.369001 -8.17537 20.6926 2.85757 -0.0 0.0 -0.0 -0.568554 17.731 1.20699 -2.96673 -32.0153 51.2611 1.14991 -29.6662 0.30454 -54.1238 -4.56233 4.88101 0.12624 -5.19495 -1.3505 -0.0 0.0 -0.0 9.00943 27.8264 -16.4573 -24.7428 39.7082 -65.5778 0.523416 14.536 -0.0667544 -12.4518 0.601224 -1.47105 -0.191775 4.90112 3.37054 0.0 0.0 0.0 6.22005 -13.2573 3.84851 -30.4329 0.0272406 4.61575 27.5664 15.2882 -3.66624 -0.771001 0.0 0.0 -0.0 0.0 -0.0 12.7601 34.6099 -5.39848 -52.0927 1.40927 -7.59895 26.2555 -2.05639 3.48541 -18.7255 0.0 0.0 0.0 0.0 0.0 
2800.66994004 709.294 -1605.15621116 6.89271886018 63.9172082905 -6.57200370537 0.410297 0.0848245 1.71418 0.411931 -0.0244089 1.7161 0.41174 -0.372628 1.67535 0.407838 -0.103402 1.71316 -7.82826 10.9661 -0.00785515 -7.86468 20.4705 2.37722 -0.0 0.0 -0.0 -0.508082 17.5665 1.2786 -1.98758 -32.5515 50.1546 1.1883 -30.4821 0.32378 -54.6428 -4.62503 4.90342 0.117137 -5.14777 -1.39183 -0.0 0.0 -0.0 8.68139 27.5134 -15.7666 -26.0436 39.5163 -65.8329 0.47144 13.1453 -0.0543199 -12.4274 0.599736 -1.46831 -0.106433 4.32565 2.5492 0.0 0.0 0.0 4.81259 -13.5175 4.54208 -30.3044 0.0322858 4.59668 27.2405 15.4975 -3.63115 -0.848373 0.0 0.0 -0.0 0.0 -0.0 17.3867 34.4848 -6.9146 -53.3449 1.52579 -7.75271 25.6291 -2.60727 3.41148 -18.9737 0.0 0.0 0.0 0.0 0.0 
2787.22322286 710.636 -1581.92564209 9.11887416237 67.8637852602 -9.14710377616 0.230094 -0.0148831 1.77138 0.231831 -0.127553 1.76685 0.22846 -0.489432 1.70251 0.224479 -0.214454 1.75842 -8.00313 10.7928 -0.00170201 -8.04619 20.1582 2.37525 -0.0 0.0 -0.0 -0.356072 17.0913 1.45332 -0.137091 -33.218 49.2349 1.24035 -31.5666 0.350605 -55.0602 -4.6756 4.92104 0.0776825 -4.99222 -1.59175 -0.0 0.0 -0.0 8.42629 27.1603 -15.242 -27.3858 39.448 -66.5908 0.431714 12.0716 -0.0456477 -12.4094 0.598636 -1.46627 -0.0194247 3.91112 1.78654 0.0 0.0 0.0 3.51314 -13.5384 5.66358 -29.8031 0.051557 4.52216 27.398 15.6087 -3.65029 -0.956118 0.0 0.0 -0.0 0.0 -0.0 23.8579 32.3403 -10.0866 -53.1493 1.50737 -7.72885 24.4745 -3.13344 3.27592 -19.1515 0.0 0.0 0.0 0.0 0.0 
2766.41267204 704.754 -1558.30024404 4.49887858207 71.0413199723 -5.11790757253 0.616587 -0.113328 1.86887 0.6185 -0.231999 1.85788 0.611343 -0.598634 1.77406 0.607086 -0.310992 1.84631 -8.19922 10.7197 0.278602 -8.25014 19.843 2.66925 -0.0 0.0 -0.0 -0.146899 16.0305 1.65176 4.4578 -34.7094 47.7013 1.38079 -34.3704 0.427054 -55.5426 -4.7342 4.94094 -0.0445253 -4.50912 -2.21008 -0.0 0.0 -0.0 8.11243 26.7732 -14.5914 -30.4471 39.0588 -66.6785 0.366883 10.3009 -0.0330692 -12.3503 0.595045 -1.45963 0.0949566 3.33395 0.771946 0.0 0.0 0.0 1.75826 -13.6618 6.67581 -26.3768 0.165704 4.00878 27.6067 15.939 -3.67756 -1.15132 0.0 0.0 -0.0 0.0 -0.0 30.6542 29.182 -12.8657 -51.0546 1.31525 -7.4696 23.3707 -4.06279 3.14326 -19.2683 0.0 0.0 0.0 0.0 0.0 
2755.36143177 705.747 -1549.98332527 4.17264502425 72.6114775785 -4.85738080482 0.752381 -0.148116 1.8893 0.754327 -0.268015 1.87605 0.745838 -0.633383 1.78615 0.74155 -0.343397 1.86373 -8.2583 10.6936 0.326721 -8.31142 19.7661 2.72081 -0.0 0.0 -0.0 0.0608157 15.7335 1.94529 6.03125 -35.2142 47.2695 1.44773 -35.6445 0.465456 -55.665 -4.74909 4.9459 -0.113113 -4.28399 -2.57647 -0.0 0.0 -0.0 8.18041 26.6322 -14.7564 -31.1561 39.032 -66.9994 0.347079 9.75583 -0.0296205 -12.3337 0.594035 -1.45776 0.142422 3.16098 0.379618 0.0 0.0 0.0 1.01594 -13.713 6.80081 -24.9901 0.203133 3.79927 27.6767 16.2007 -3.68839 -1.21164 0.0 0.0 -0.0 0.0 -0.0 34.2855 28.3719 -12.5946 -49.5574 1.18384 -7.28014 22.9426 -4.40612 3.09153 -19.3726 0.0 0.0 0.0 0.0 0.0 
2756.59877804 705.747 -1545.69377464 4.31304738786 73.193602139 -5.0042731012 0.752381 -0.148116 1.8893 0.754327 -0.268015 1.87605 0.745838 -0.633383 1.78615 0.74155 -0.343397 1.86373 -8.2583 10.6936 0.326721 -8.31142 19.7661 2.72081 -0.0 0.0 -0.0 0.0608157 15.7335 1.94529 6.03125 -35.2142 47.2695 1.44773 -35.6445 0.465456 -55.665 -4.74909 4.9459 -0.113113 -4.28399 -2.57647 -0.0 0.0 -0.0 8.18041 26.6322 -14.7564 -31.1561 39.032 -66.9994 0.347079 9.75583 -0.0296205 -12.3337 0.594035 -1.45776 0.142422 3.16098 0.379618 0.0 0.0 0.0 1.01594 -13.713 6.80081 -24.9901 0.203133 3.79927 27.6767 16.2007 -3.68839 -1.21164 0.0 0.0 -0.0 0.0 -0.0 34.2855 28.3719 -12.5946 -49.5574 1.18384 -7.28014 22.9426 -4.40612 3.09153 -19.3726 0.0 0.0 0.0 0.0 0.0 
2752.96621758 699.382 -1544.57604682 -3.3069025904 75.3089206921 2.10561722577 0.978182 -0.0113413 1.87366 0.980126 -0.130523 1.86914 0.976159 -0.489902 1.80854 0.971649 -0.198181 1.86319 -8.47163 9.45394 -0.154529 -8.5201 17.7978 1.9947 -0.0 0.0 -0.0 0.149008 16.2121 2.13769 8.20883 -35.254 46.7907 1.75866 -41.0584 0.658602 -55.9083 -4.77872 4.95569 -0.25423 -3.81579 -3.32767 -0.0 0.0 -0.0 7.87811 23.4808 -14.4038 -32.2519 38.7171 -66.7735 0.377939 10.6044 -0.0350749 -13.1628 0.645062 -1.55077 0.30268 1.43171 -1.42381 0.0 0.0 0.0 -0.138518 -14.258 6.47025 -15.3008 0.322002 2.31903 25.8868 18.6717 -3.51047 -5.19725 0.0 0.0 -0.0 0.0 -0.0 34.6545 27.1509 -10.3114 -33.5504 0.108215 -5.07489 7.15672 -6.32301 1.02733 -18.1801 0.0 0.0 0.0 0.0 0.0 
2744.71272831 713.784 -1538.00239454 -10.2849783688 76.4504691946 9.11926712523 1.1233 0.253183 1.94182 1.12539 0.129131 1.95399 1.13022 -0.246234 1.94272 1.12496 0.0636113 1.95722 -7.20522 8.50832 -0.648491 -7.20567 16.2912 1.11093 -0.0 0.0 -0.0 0.701471 16.9224 3.07275 9.5686 -34.9875 47.0711 2.00371 -44.7815 0.825561 -56.8546 -4.89437 4.99254 -1.04426 -0.413391 -7.17375 -0.0 0.0 -0.0 7.50358 19.8683 -13.8896 -32.566 37.9136 -67.2444 0.38548 10.811 -0.036476 -14.3105 0.717925 -1.67831 0.86582 -1.90462 -6.56609 0.0 0.0 0.0 -0.946838 -13.9664 6.27743 -7.96639 0.245101 1.19705 24.9189 21.0833 -3.42883 -8.62588 0.0 0.0 -0.0 0.0 -0.0 34.9938 26.3177 -8.69891 -19.976 -0.295925 -3.03568 -4.09054 -8.42824 -0.603938 -17.8912 0.0 0.0 0.0 0.0 0.0 
2724.10980003 714.723 -1538.5332852 -16.6179514467 77.476886761 14.8073560377 1.18554 0.429548 2.04395 1.18781 0.298644 2.06713 1.19914 -0.0988268 2.08624 1.19314 0.231824 2.07568 -6.3328 7.83336 -0.994585 -6.30758 15.2332 0.510869 -0.0 0.0 -0.0 1.13548 17.513 3.7955 10.5601 -34.7555 47.6006 2.19326 -47.3672 0.96212 -57.4641 -4.96917 5.01526 -1.60382 2.00988 -9.85219 -0.0 0.0 -0.0 7.29607 17.3134 -13.6241 -32.8107 37.3709 -67.5517 0.392512 11.0034 -0.0378067 -15.1118 0.770305 -1.76649 1.25661 -4.29792 -10.1315 0.0 0.0 0.0 -2.49053 -13.614 6.72382 -2.89356 0.108276 0.43082 24.2039 22.9005 -3.37062 -11.0254 0.0 0.0 -0.0 0.0 -0.0 35.3074 25.7264 -7.61822 -10.4565 -0.287313 -1.57679 -12.0538 -10.0642 -1.80209 -17.69 0.0 0.0 0.0 0.0 0.0 
